<svg width="501" height="501" viewBox="0 0 501 501" fill="none" xmlns="http://www.w3.org/2000/svg">
<path d="M250.666 440.102C357.635 440.102 444.351 434.934 444.351 428.559C444.351 422.184 357.635 417.016 250.666 417.016C143.697 417.016 56.981 422.184 56.981 428.559C56.981 434.934 143.697 440.102 250.666 440.102Z" fill="#F5F5F5"/>
<path d="M349.811 170.767L339.901 166.688C339.901 166.688 326.825 191.029 323.079 192.262C317.985 193.935 307.436 198.585 301.182 199.4C300.333 200.42 298.945 203.591 299.075 204.744C307.476 207.609 325.936 203.805 329.892 200.808C338.893 194.006 349.811 170.767 349.811 170.767Z" fill="#E58A7B"/>
<path d="M352.858 165.23C354.706 172.195 344.696 186.205 344.696 186.205L331.58 178.7C331.58 178.7 334.038 172.939 337.035 167.076C341.839 157.603 350.75 157.286 352.858 165.23Z" fill="#4CAF4F"/>
<path opacity="0.2" d="M352.858 165.23C354.706 172.195 344.696 186.205 344.696 186.205L331.58 178.7C331.58 178.7 334.038 172.939 337.035 167.076C341.839 157.603 350.75 157.286 352.858 165.23Z" fill="black"/>
<path opacity="0.2" d="M336.785 181.698L341.949 184.655L342.858 168.473C339.852 170.828 337.734 177.925 336.785 181.698Z" fill="black"/>
<path d="M344.227 159.989C344.227 159.989 334.018 183.177 339.971 226.351H380.199C380.838 220.049 378.72 189.295 386.382 159.601C381.969 158.721 377.504 158.138 373.016 157.858C367.324 157.521 361.617 157.521 355.924 157.858C351.978 158.267 348.068 158.979 344.227 159.989Z" fill="#4CAF4F"/>
<path opacity="0.2" d="M344.227 159.989C344.227 159.989 334.018 183.177 339.971 226.351H380.199C380.838 220.049 378.72 189.295 386.382 159.601C381.969 158.721 377.504 158.138 373.016 157.858C367.324 157.521 361.617 157.521 355.924 157.858C351.978 158.267 348.068 158.979 344.227 159.989Z" fill="black"/>
<g style="mix-blend-mode:multiply">
<path d="M334.897 429.476C334.837 430.577 350.091 431.464 368.961 431.464C387.831 431.464 403.195 430.577 403.254 429.476C403.314 428.375 388.071 427.499 369.19 427.499C350.31 427.499 334.967 428.385 334.897 429.476Z" fill="#E8ECF1"/>
</g>
<path d="M361.749 400.54L354.614 403.36L360.76 419.567L367.895 416.747L361.749 400.54Z" fill="#E58A7B"/>
<path d="M393.565 421.635H386.043L383.286 403.862H390.808L393.565 421.635Z" fill="#E58A7B"/>
<path d="M385.523 420.748H393.974C394.121 420.749 394.263 420.802 394.374 420.899C394.486 420.996 394.56 421.131 394.584 421.278L395.672 428.1C395.695 428.271 395.682 428.445 395.633 428.611C395.584 428.776 395.501 428.929 395.389 429.059C395.277 429.188 395.14 429.292 394.985 429.362C394.83 429.433 394.663 429.468 394.494 429.467C391.547 429.416 390.128 429.232 386.412 429.232C384.125 429.232 379.42 429.477 376.243 429.477C373.066 429.477 372.857 426.295 374.165 426C380.039 424.705 382.317 422.94 384.275 421.227C384.62 420.918 385.064 420.747 385.523 420.748Z" fill="#263238"/>
<path d="M360.55 418.117L368.541 415.731C368.684 415.69 368.836 415.7 368.972 415.759C369.108 415.819 369.221 415.924 369.29 416.057L372.287 422.176C372.357 422.331 372.392 422.5 372.391 422.67C372.39 422.841 372.353 423.01 372.282 423.164C372.21 423.318 372.107 423.455 371.978 423.564C371.85 423.674 371.7 423.753 371.538 423.797C368.631 424.613 366.683 425.112 363.047 426.193C360.54 426.938 357.982 428.151 355.505 428.957C353.787 429.518 349.751 429.538 347.663 429.538C344.576 429.538 343.887 426.214 345.216 426.061C348.562 425.683 349.012 425.857 350.86 424.908C353.884 423.559 356.624 421.627 358.931 419.218C359.366 418.712 359.925 418.332 360.55 418.117Z" fill="#263238"/>
<path d="M302.441 199.36L294.17 195.821L290.763 205.182C294.154 205.709 297.602 205.709 300.993 205.182L302.441 199.36Z" fill="#E58A7B"/>
<path d="M288.016 195.576L287.797 201.797L290.763 205.162L294.17 195.801L288.016 195.576Z" fill="#E58A7B"/>
<path d="M362.728 401.917L355.571 404.737L358.74 413.118L365.897 410.297L362.728 401.917Z" fill="#CF6F64"/>
<path d="M390.808 403.862H383.286L384.714 413.029H392.236L390.808 403.862Z" fill="#CF6F64"/>
<path opacity="0.2" d="M338.693 214.676C338.843 216.521 339.012 218.408 339.232 220.345L369.141 210.434C373.811 209.021 377.87 206.024 380.648 201.939C380.768 199.217 380.918 196.351 381.148 193.364C381.248 191.916 381.368 190.427 381.497 188.918C381.627 187.409 381.807 185.736 381.997 184.125L338.693 214.676Z" fill="black"/>
<path d="M348.462 181.229L347.464 181.107C348.053 176.008 351.779 171.991 355.705 172.093V173.112C352.268 173.041 348.992 176.661 348.462 181.229Z" fill="white"/>
<path d="M353.787 190.641H353.617V189.621C357.053 189.754 360.28 186.093 360.809 181.535L361.808 181.657C361.279 186.644 357.673 190.641 353.787 190.641Z" fill="white"/>
<path d="M372.457 138.208C371.049 143.826 369.39 154.115 373.016 157.858C373.016 157.858 370.479 163.558 360.26 163.558C350.92 163.558 355.925 157.858 355.925 157.858C362.138 156.369 362.248 151.739 361.429 147.355L372.457 138.208Z" fill="#E58A7B"/>
<path d="M367.962 141.94L361.439 147.355C361.641 148.362 361.758 149.386 361.788 150.414C363.696 152.351 367.522 147.446 367.912 144.938C368.11 143.95 368.127 142.934 367.962 141.94Z" fill="#CF6F64"/>
<path d="M350.221 138.136C350.674 138.939 351.286 139.638 352.016 140.189C352.747 140.74 353.581 141.131 354.466 141.338C356.863 141.879 358.062 139.625 357.403 137.361C356.814 135.322 354.846 132.579 352.408 133.048C351.886 133.158 351.397 133.394 350.983 133.736C350.568 134.078 350.24 134.517 350.026 135.015C349.812 135.513 349.718 136.057 349.752 136.6C349.785 137.143 349.946 137.67 350.221 138.136Z" fill="#CF6F64"/>
<path d="M354.186 120.159C350.45 121.903 349.132 137.056 353.827 139.299C358.522 141.542 361.259 116.845 354.186 120.159Z" fill="#263238"/>
<path d="M373.596 129.754C372.697 137.361 372.597 141.838 368.601 145.733C367.363 147.026 365.799 147.944 364.082 148.386C362.364 148.829 360.561 148.778 358.87 148.24C357.179 147.702 355.667 146.698 354.5 145.338C353.333 143.977 352.558 142.315 352.258 140.533C351.05 133.701 352.718 122.413 360.19 119.384C361.76 118.677 363.486 118.412 365.191 118.615C366.895 118.819 368.515 119.484 369.882 120.542C371.25 121.6 372.315 123.012 372.968 124.632C373.621 126.252 373.838 128.02 373.596 129.754Z" fill="#E58A7B"/>
<path d="M361.319 124.095C366.853 122.657 370.919 121.678 369.46 126.379C367.532 132.661 365.215 138.738 368.321 139.013C370.219 139.187 378.611 135.557 377.542 131.875C376.613 128.674 380.538 127.797 381.238 126.175C383.825 120.302 376.423 121.077 377.741 117.508C379.06 113.939 371.748 108.188 367.752 111.053C361.249 115.682 350.091 115.611 355.955 107.994C360.16 102.559 352.658 103.67 352.658 103.67C352.658 103.67 357.193 106.413 349.561 110.655C341.49 115.183 348.892 127.348 361.319 124.095Z" fill="#263238"/>
<path d="M376.533 138.136C375.44 139.75 373.799 140.891 371.928 141.338C369.46 141.879 368.511 139.625 369.44 137.361C370.269 135.322 372.547 132.579 374.904 133.048C377.262 133.517 377.801 136.138 376.533 138.136Z" fill="#E58A7B"/>
<path d="M339.971 226.351C339.971 226.351 333.219 288.043 332.689 311.456C332.15 335.807 355.575 411.785 355.575 411.785L367.562 406.686C367.562 406.686 353.577 337.265 355.575 313.353C357.693 287.279 366.443 226.392 366.443 226.392L339.971 226.351Z" fill="#4CAF4F"/>
<path opacity="0.2" d="M356.754 243.289C351.369 254.689 354.995 277.235 357.912 290.593C359.021 281.16 360.34 270.923 361.588 261.45C361.469 246.888 360.36 235.641 356.754 243.289Z" fill="black"/>
<path d="M367.033 402.648C367.093 402.648 368.451 406.544 368.451 406.544L354.626 412.478L352.448 408.338L367.033 402.648Z" fill="#4CAF4F"/>
<path d="M354.246 226.351C354.246 226.351 359.411 285.025 362.827 307C366.583 331.075 381.308 411.255 381.308 411.255H395.083C395.083 411.255 386.832 333.023 385.274 309.182C383.575 283.322 380.199 226.351 380.199 226.351H354.246Z" fill="#4CAF4F"/>
<path d="M395.293 407.594C395.353 407.594 395.752 411.52 395.752 411.52H380.608L379.53 407.013L395.293 407.594Z" fill="#4CAF4F"/>
<path opacity="0.2" d="M390.018 402.944C389.987 402.944 389.957 402.933 389.933 402.913C389.909 402.892 389.893 402.863 389.889 402.832C389.809 402.118 382.367 331.452 380.968 310.039C379.45 286.81 376.393 235.284 376.363 234.764C376.361 234.747 376.364 234.73 376.369 234.714C376.374 234.698 376.383 234.683 376.394 234.671C376.406 234.658 376.419 234.648 376.434 234.641C376.45 234.635 376.466 234.631 376.483 234.631C376.516 234.631 376.547 234.644 376.571 234.666C376.595 234.689 376.61 234.72 376.613 234.754C376.613 235.274 379.699 286.759 381.218 310.028C382.616 331.442 390.058 402.057 390.128 402.822C390.131 402.838 390.13 402.856 390.126 402.872C390.122 402.889 390.115 402.904 390.104 402.918C390.094 402.931 390.081 402.942 390.066 402.95C390.051 402.958 390.035 402.963 390.018 402.964V402.944Z" fill="black"/>
<path d="M362.168 131.875C362.168 132.497 361.788 132.997 361.389 132.997C360.989 132.997 360.699 132.497 360.739 131.875C360.779 131.253 361.119 130.754 361.519 130.754C361.918 130.754 362.208 131.263 362.168 131.875Z" fill="#263238"/>
<path d="M355.315 131.875C355.315 132.497 354.926 132.997 354.536 132.997C354.146 132.997 353.847 132.497 353.877 131.875C353.907 131.253 354.266 130.754 354.666 130.754C355.065 130.754 355.355 131.263 355.315 131.875Z" fill="#263238"/>
<path d="M357.473 132.192C356.639 134.091 355.564 135.87 354.276 137.484C355.275 138.504 357.143 138.034 357.143 138.034L357.473 132.192Z" fill="#DF5753"/>
<path d="M357.653 140.634C357.63 140.634 357.607 140.629 357.585 140.62C357.564 140.611 357.545 140.597 357.529 140.58C357.513 140.563 357.501 140.542 357.493 140.52C357.485 140.498 357.481 140.474 357.483 140.451C357.485 140.401 357.507 140.354 357.542 140.32C357.577 140.286 357.624 140.267 357.673 140.267C358.437 140.273 359.192 140.103 359.884 139.772C360.575 139.44 361.185 138.954 361.668 138.351C361.703 138.32 361.747 138.303 361.793 138.303C361.839 138.303 361.884 138.32 361.918 138.351C361.95 138.385 361.969 138.43 361.969 138.478C361.969 138.526 361.95 138.571 361.918 138.605C361.401 139.247 360.749 139.762 360.011 140.113C359.273 140.465 358.467 140.642 357.653 140.634Z" fill="#263238"/>
<path d="M363.387 129.999C363.339 130.024 363.286 130.037 363.232 130.037C363.178 130.037 363.125 130.024 363.077 129.999C362.703 129.752 362.278 129.599 361.835 129.551C361.393 129.503 360.946 129.562 360.53 129.724C360.489 129.744 360.445 129.757 360.4 129.76C360.354 129.762 360.309 129.756 360.266 129.741C360.223 129.726 360.184 129.702 360.15 129.671C360.117 129.64 360.089 129.602 360.07 129.561C360.033 129.47 360.032 129.368 360.068 129.276C360.103 129.185 360.172 129.111 360.26 129.071C360.782 128.853 361.348 128.768 361.91 128.821C362.472 128.874 363.012 129.065 363.487 129.377C363.525 129.404 363.558 129.438 363.583 129.477C363.608 129.517 363.625 129.561 363.634 129.608C363.642 129.654 363.641 129.702 363.632 129.748C363.622 129.794 363.603 129.838 363.576 129.877C363.526 129.935 363.46 129.977 363.387 129.999Z" fill="#263238"/>
<path d="M352.668 127.959C352.615 127.946 352.566 127.918 352.528 127.878C352.495 127.845 352.469 127.805 352.451 127.761C352.432 127.717 352.423 127.67 352.423 127.623C352.423 127.575 352.432 127.528 352.451 127.485C352.469 127.441 352.495 127.401 352.528 127.368C352.911 126.93 353.388 126.588 353.922 126.368C354.455 126.149 355.031 126.059 355.605 126.104C355.651 126.111 355.695 126.128 355.734 126.153C355.774 126.179 355.807 126.212 355.834 126.251C355.86 126.29 355.878 126.334 355.887 126.381C355.895 126.428 355.895 126.476 355.885 126.522C355.863 126.616 355.809 126.699 355.731 126.756C355.654 126.812 355.559 126.838 355.465 126.828C355.011 126.799 354.557 126.875 354.136 127.052C353.716 127.228 353.34 127.5 353.038 127.847C352.992 127.899 352.933 127.937 352.868 127.956C352.803 127.976 352.734 127.977 352.668 127.959Z" fill="#263238"/>
<path d="M390.248 169.635L379.859 166.811C379.859 166.811 369.67 192.415 366.064 194.077C361.169 196.362 348.772 204.275 343.498 208.017C343.208 209.292 343.438 212.667 344.097 213.595C353.088 211.922 370.299 205.162 373.896 201.725C382.097 193.884 390.248 169.635 390.248 169.635Z" fill="#E58A7B"/>
<path d="M382.996 422.094C382.489 422.135 381.984 421.994 381.567 421.696C381.439 421.577 381.342 421.427 381.288 421.259C381.234 421.091 381.223 420.911 381.258 420.738C381.264 420.629 381.299 420.525 381.359 420.435C381.418 420.345 381.501 420.274 381.597 420.228C382.436 419.79 384.784 421.309 385.054 421.482C385.083 421.501 385.106 421.529 385.119 421.562C385.131 421.595 385.133 421.631 385.124 421.665C385.115 421.701 385.098 421.734 385.073 421.761C385.049 421.787 385.018 421.807 384.984 421.818C384.332 421.982 383.666 422.074 382.996 422.094ZM381.997 420.503C381.921 420.486 381.843 420.486 381.767 420.503C381.729 420.523 381.697 420.554 381.676 420.592C381.654 420.63 381.645 420.674 381.647 420.717C381.621 420.836 381.625 420.96 381.66 421.076C381.695 421.192 381.76 421.297 381.847 421.38C382.237 421.737 383.216 421.778 384.504 421.523C383.737 421.007 382.873 420.66 381.967 420.503H381.997Z" fill="#4CAF4F"/>
<path d="M384.934 421.818C384.908 421.827 384.88 421.827 384.854 421.818C384.105 421.39 382.696 419.708 382.906 418.851C382.937 418.716 383.012 418.594 383.119 418.508C383.226 418.421 383.359 418.373 383.495 418.372C383.629 418.354 383.766 418.365 383.895 418.406C384.024 418.446 384.144 418.515 384.245 418.607C385.074 419.33 385.124 421.553 385.124 421.665C385.128 421.699 385.122 421.733 385.106 421.762C385.09 421.792 385.064 421.815 385.034 421.828C385 421.835 384.965 421.832 384.934 421.818ZM383.595 418.709H383.525C383.296 418.709 383.266 418.841 383.256 418.892C383.136 419.392 384.025 420.666 384.764 421.267C384.761 420.406 384.499 419.567 384.015 418.861C383.899 418.758 383.749 418.704 383.595 418.709Z" fill="#4CAF4F"/>
<path d="M356.474 420.819C355.863 421.037 355.197 421.037 354.586 420.819C354.447 420.742 354.329 420.631 354.244 420.496C354.158 420.36 354.108 420.205 354.096 420.044C354.084 419.943 354.096 419.841 354.133 419.747C354.17 419.652 354.229 419.569 354.306 419.504C355.105 418.77 358.372 419.504 358.741 419.647C358.777 419.656 358.808 419.677 358.829 419.707C358.851 419.736 358.863 419.773 358.861 419.81C358.863 419.848 358.853 419.886 358.834 419.919C358.814 419.951 358.786 419.977 358.751 419.993C358.016 420.332 357.254 420.608 356.474 420.819ZM354.846 419.606C354.731 419.629 354.625 419.682 354.536 419.759C354.504 419.783 354.48 419.816 354.466 419.854C354.451 419.892 354.448 419.933 354.456 419.973C354.463 420.08 354.495 420.184 354.551 420.274C354.607 420.365 354.684 420.44 354.776 420.493C355.305 420.778 356.534 420.554 358.122 419.871C357.052 419.596 355.945 419.506 354.846 419.606Z" fill="#4CAF4F"/>
<path d="M358.722 419.993H358.642C357.643 419.809 355.645 418.637 355.585 417.76C355.585 417.556 355.675 417.271 356.154 417.108C356.316 417.049 356.488 417.024 356.66 417.034C356.831 417.045 356.999 417.091 357.153 417.169C358.232 417.709 358.801 419.667 358.831 419.758C358.838 419.789 358.838 419.821 358.829 419.852C358.82 419.882 358.804 419.91 358.781 419.932C358.767 419.957 358.746 419.978 358.722 419.993ZM356.354 417.414H356.254C355.944 417.526 355.944 417.658 355.944 417.699C355.944 418.229 357.393 419.198 358.402 419.524C358.169 418.705 357.678 417.988 357.003 417.485C356.803 417.381 356.572 417.355 356.354 417.414Z" fill="#4CAF4F"/>
<path d="M344.347 207.415L333.928 212.31L332.719 215.369L336.565 218.01C336.565 218.01 343.757 217.215 345.805 212.493L344.347 207.415Z" fill="#E58A7B"/>
<path d="M344.786 213.768C344.553 211.725 343.893 209.756 342.848 207.996L344.497 206.732C345.737 208.76 346.527 211.039 346.814 213.411L344.786 213.768Z" fill="#263238"/>
<path d="M346.564 208.863C346.785 209.217 346.893 209.631 346.874 210.049C346.856 210.468 346.711 210.87 346.461 211.202C346.21 211.534 345.865 211.779 345.473 211.904C345.081 212.028 344.661 212.027 344.27 211.899C343.879 211.772 343.536 211.524 343.288 211.191C343.039 210.857 342.898 210.453 342.882 210.035C342.866 209.616 342.978 209.203 343.2 208.851C343.423 208.499 343.747 208.225 344.127 208.068C344.554 207.846 345.05 207.805 345.506 207.954C345.962 208.103 346.343 208.429 346.564 208.863Z" fill="#263238"/>
<path d="M326.885 216.266L328.274 217.694L337.624 213.615L333.928 212.31L326.885 216.266Z" fill="#E58A7B"/>
<path opacity="0.2" d="M367.033 402.648C367.093 402.648 368.451 406.544 368.451 406.544L354.626 412.478L352.448 408.338L367.033 402.648Z" fill="black"/>
<path opacity="0.2" d="M395.293 407.594C395.353 407.594 395.752 411.52 395.752 411.52H380.608L379.53 407.013L395.293 407.594Z" fill="black"/>
<path d="M392.955 166.698C395.702 175.743 384.964 188.112 384.964 188.112L370.13 181.933C371.888 176.705 373.915 171.576 376.203 166.566C380.758 156.542 390.178 157.572 392.955 166.698Z" fill="#4CAF4F"/>
<path opacity="0.2" d="M392.955 166.698C395.702 175.743 384.964 188.112 384.964 188.112L370.13 181.933C371.888 176.705 373.915 171.576 376.203 166.566C380.758 156.542 390.178 157.572 392.955 166.698Z" fill="black"/>
<path d="M245.551 76.0771H239.168V77.1271H245.551V76.0771Z" fill="#4CAF4F"/>
<path d="M328.182 117.647L327.41 135.148L328.437 135.195L329.21 117.694L328.182 117.647Z" fill="#4CAF4F"/>
<path d="M326.196 80.7881H208.321L197.352 331.35H315.228L326.196 80.7881Z" fill="#4CAF4F"/>
<path opacity="0.56" d="M322.68 84.2347H204.805L193.836 334.797H311.711L322.68 84.2347Z" fill="#FAFAFA"/>
<path opacity="0.07" d="M319.163 87.6711H201.288L190.31 338.233H308.185L319.163 87.6711Z" fill="#4CAF4F"/>
<path d="M305.748 196.953H205.134L204.295 216.124H304.909L305.748 196.953Z" fill="white"/>
<path d="M260.466 182.963H205.744L205.374 191.538H260.096L260.466 182.963Z" fill="#4CAF4F"/>
<path d="M303.48 248.693H202.866L202.027 267.863H302.641L303.48 248.693Z" fill="white"/>
<path opacity="0.47" d="M285.03 293.754H217.371L216.362 316.728H284.021L285.03 293.754Z" fill="#4CAF4F"/>
<path d="M280.504 320.297H212.846C212.816 320.305 212.786 320.305 212.756 320.297C212.746 320.267 212.746 320.235 212.756 320.205L213.755 297.221C213.755 297.205 213.758 297.19 213.764 297.175C213.77 297.161 213.779 297.148 213.791 297.138C213.802 297.127 213.815 297.119 213.83 297.114C213.844 297.109 213.86 297.107 213.875 297.109H281.533C281.546 297.102 281.559 297.099 281.573 297.099C281.587 297.099 281.601 297.102 281.613 297.109C281.62 297.121 281.624 297.135 281.624 297.149C281.624 297.164 281.62 297.178 281.613 297.19L280.634 320.225C280.622 320.249 280.603 320.269 280.58 320.282C280.557 320.294 280.531 320.3 280.504 320.297ZM212.966 320.052H280.385L281.383 297.313H213.965L212.966 320.052Z" fill="white"/>
<path d="M248.648 234.703H203.476L203.106 243.289H248.269L248.648 234.703Z" fill="#4CAF4F"/>
<path d="M283.741 135.026C283.483 140.605 281.539 145.966 278.177 150.373C275.688 153.701 272.485 156.403 268.814 158.272C265.143 160.14 261.101 161.125 256.999 161.151C253.684 161.177 250.4 160.51 247.347 159.191C244.294 157.871 241.539 155.928 239.249 153.481C236.96 151.033 235.186 148.133 234.037 144.959C232.887 141.786 232.386 138.405 232.565 135.026C232.916 128.015 235.878 121.405 240.846 116.549C245.813 111.693 252.409 108.957 259.287 108.901C262.604 108.87 265.893 109.533 268.949 110.85C272.005 112.167 274.765 114.109 277.056 116.558C279.348 119.006 281.124 121.908 282.274 125.085C283.423 128.261 283.923 131.645 283.741 135.026Z" fill="white"/>
<path d="M286.148 114.367C286.083 115.851 285.566 117.276 284.67 118.446C284.007 119.33 283.154 120.048 282.178 120.544C281.201 121.041 280.127 121.303 279.036 121.311C277.979 121.318 276.937 121.06 276 120.561C275.063 120.061 274.26 119.335 273.662 118.446C272.869 117.244 272.477 115.814 272.543 114.367C272.639 112.505 273.428 110.752 274.748 109.463C276.068 108.175 277.819 107.449 279.645 107.433C280.526 107.425 281.4 107.601 282.211 107.95C283.023 108.3 283.756 108.815 284.366 109.465C284.975 110.114 285.447 110.884 285.754 111.728C286.061 112.571 286.195 113.469 286.148 114.367Z" fill="#4CAF4F"/>
<path d="M215.973 206.538C215.925 207.36 215.573 208.133 214.989 208.7C214.405 209.268 213.632 209.589 212.826 209.597C212.437 209.602 212.05 209.525 211.691 209.372C211.332 209.218 211.008 208.991 210.738 208.704C210.469 208.417 210.259 208.077 210.124 207.705C209.988 207.332 209.929 206.935 209.949 206.538C209.992 205.715 210.342 204.94 210.927 204.371C211.512 203.802 212.288 203.483 213.096 203.479C213.485 203.476 213.87 203.554 214.229 203.708C214.587 203.862 214.911 204.089 215.18 204.376C215.449 204.662 215.659 205.002 215.795 205.374C215.931 205.745 215.992 206.142 215.973 206.538Z" fill="#263238"/>
<path d="M229.438 206.538C229.393 207.361 229.042 208.135 228.458 208.703C227.873 209.271 227.099 209.591 226.292 209.597C225.903 209.601 225.518 209.523 225.16 209.369C224.802 209.214 224.479 208.987 224.211 208.7C223.942 208.414 223.734 208.074 223.599 207.702C223.464 207.33 223.404 206.934 223.425 206.538C223.468 205.717 223.817 204.943 224.399 204.374C224.982 203.806 225.755 203.486 226.562 203.479C226.951 203.474 227.337 203.551 227.696 203.705C228.055 203.859 228.38 204.086 228.649 204.373C228.919 204.659 229.128 204.999 229.264 205.372C229.4 205.744 229.459 206.141 229.438 206.538Z" fill="#263238"/>
<path d="M242.914 206.538C242.868 207.361 242.518 208.135 241.933 208.703C241.349 209.271 240.575 209.591 239.767 209.597C239.379 209.601 238.993 209.523 238.635 209.369C238.276 209.214 237.952 208.987 237.683 208.701C237.414 208.414 237.204 208.075 237.068 207.703C236.932 207.331 236.871 206.935 236.891 206.538C236.936 205.716 237.287 204.942 237.871 204.374C238.456 203.805 239.23 203.486 240.037 203.479C240.427 203.474 240.813 203.551 241.172 203.705C241.531 203.859 241.855 204.086 242.125 204.373C242.395 204.659 242.604 204.999 242.739 205.372C242.875 205.744 242.935 206.141 242.914 206.538Z" fill="#263238"/>
<path d="M213.705 258.278C213.657 259.1 213.306 259.872 212.722 260.44C212.138 261.008 211.365 261.328 210.558 261.337C210.169 261.341 209.784 261.263 209.426 261.109C209.067 260.954 208.743 260.727 208.474 260.441C208.205 260.154 207.995 259.815 207.859 259.443C207.723 259.071 207.662 258.675 207.681 258.278C207.727 257.456 208.078 256.682 208.662 256.114C209.247 255.545 210.021 255.226 210.828 255.219C211.217 255.216 211.602 255.294 211.961 255.448C212.319 255.602 212.643 255.829 212.912 256.116C213.182 256.402 213.391 256.742 213.527 257.113C213.664 257.485 213.724 257.882 213.705 258.278Z" fill="#263238"/>
<path d="M227.171 258.278C227.125 259.099 226.776 259.872 226.194 260.439C225.611 261.007 224.839 261.328 224.034 261.337C223.645 261.342 223.259 261.265 222.9 261.112C222.54 260.958 222.216 260.731 221.946 260.444C221.677 260.157 221.468 259.817 221.332 259.445C221.196 259.072 221.137 258.675 221.157 258.278C221.203 257.456 221.553 256.682 222.138 256.114C222.722 255.545 223.497 255.226 224.304 255.219C224.692 255.216 225.077 255.294 225.435 255.448C225.793 255.602 226.116 255.83 226.385 256.116C226.654 256.403 226.862 256.742 226.997 257.114C227.132 257.486 227.191 257.882 227.171 258.278Z" fill="#263238"/>
<path d="M240.676 258.278C240.631 259.101 240.28 259.875 239.696 260.443C239.111 261.011 238.337 261.331 237.53 261.337C237.141 261.339 236.756 261.26 236.399 261.106C236.041 260.951 235.718 260.724 235.449 260.438C235.18 260.151 234.97 259.812 234.834 259.441C234.697 259.07 234.635 258.674 234.653 258.278C234.701 257.456 235.052 256.684 235.636 256.116C236.22 255.549 236.993 255.228 237.8 255.219C238.189 255.214 238.575 255.291 238.934 255.445C239.293 255.598 239.618 255.826 239.887 256.112C240.157 256.399 240.366 256.739 240.502 257.112C240.638 257.484 240.697 257.881 240.676 258.278Z" fill="#263238"/>
<path d="M254.122 258.278C254.074 259.1 253.723 259.872 253.139 260.44C252.555 261.008 251.782 261.328 250.976 261.337C250.587 261.339 250.202 261.26 249.845 261.106C249.487 260.951 249.164 260.724 248.894 260.438C248.625 260.151 248.416 259.812 248.279 259.441C248.143 259.07 248.081 258.674 248.099 258.278C248.147 257.457 248.498 256.684 249.082 256.116C249.666 255.549 250.439 255.228 251.245 255.219C251.634 255.216 252.02 255.294 252.378 255.448C252.737 255.602 253.06 255.829 253.33 256.116C253.599 256.402 253.808 256.742 253.945 257.113C254.081 257.485 254.141 257.882 254.122 258.278Z" fill="#263238"/>
<path d="M267.648 258.278C267.6 259.1 267.249 259.872 266.665 260.44C266.081 261.008 265.308 261.328 264.501 261.337C264.112 261.342 263.726 261.265 263.367 261.112C263.008 260.958 262.683 260.731 262.414 260.444C262.144 260.157 261.935 259.817 261.799 259.445C261.663 259.072 261.604 258.675 261.624 258.278C261.67 257.456 262.021 256.682 262.605 256.114C263.19 255.545 263.964 255.226 264.771 255.219C265.16 255.216 265.545 255.294 265.904 255.448C266.262 255.602 266.586 255.829 266.855 256.116C267.125 256.402 267.334 256.742 267.47 257.113C267.607 257.485 267.667 257.882 267.648 258.278Z" fill="#263238"/>
<path d="M265.604 133.666C269.785 129.492 270.007 122.802 266.099 118.723C262.192 114.644 255.635 114.721 251.454 118.895C247.272 123.069 247.051 129.759 250.958 133.838C254.865 137.916 261.422 137.839 265.604 133.666Z" fill="#4CAF4F"/>
<path d="M278.177 150.373C275.688 153.701 272.485 156.403 268.814 158.272C265.143 160.14 261.101 161.125 256.999 161.151C253.022 161.186 249.097 160.22 245.571 158.341C242.045 156.461 239.026 153.725 236.781 150.373C241.636 145.437 249.317 142.215 257.828 142.215C266.339 142.215 273.752 145.437 278.177 150.373Z" fill="#4CAF4F"/>
<path opacity="0.1" d="M265.604 133.666C269.785 129.492 270.007 122.802 266.099 118.723C262.192 114.644 255.635 114.721 251.454 118.895C247.272 123.069 247.051 129.759 250.958 133.838C254.865 137.916 261.422 137.839 265.604 133.666Z" fill="white"/>
<path opacity="0.1" d="M278.177 150.373C275.688 153.701 272.485 156.403 268.814 158.272C265.143 160.14 261.101 161.125 256.999 161.151C253.022 161.186 249.097 160.22 245.571 158.341C242.045 156.461 239.026 153.725 236.781 150.373C241.636 145.437 249.317 142.215 257.828 142.215C266.339 142.215 273.752 145.437 278.177 150.373Z" fill="white"/>
<path d="M131.202 220.743C130.253 222.864 129.254 225.199 128.385 227.463C127.516 229.726 126.627 232.062 125.858 234.386C124.288 238.968 123.091 243.675 122.282 248.458L122.062 249.957C122.041 250.214 122.065 250.473 122.132 250.722C122.368 251.567 122.739 252.367 123.231 253.088C124.514 254.955 126.002 256.665 127.666 258.186C129.421 259.852 131.262 261.422 133.18 262.887C135.098 264.396 137.116 265.865 139.104 267.252L137.236 270.831C132.489 268.72 127.984 266.083 123.8 262.969C121.568 261.307 119.554 259.361 117.807 257.177C116.771 255.877 115.963 254.404 115.419 252.823C115.103 251.835 114.941 250.803 114.94 249.764C114.94 249.519 114.94 249.162 114.94 248.989V248.489L115.039 247.469C115.612 242.157 116.707 236.916 118.306 231.827C119.085 229.318 119.914 226.82 120.863 224.383C121.812 221.946 122.791 219.56 124 217.082L131.202 220.743Z" fill="#E58A7B"/>
<path d="M137.695 266.619L144.758 262.969L142.93 270.882C142.93 270.882 138.085 272.269 135.837 269.862L137.695 266.619Z" fill="#E58A7B"/>
<path d="M151.221 264.264L149.343 270.81L142.93 270.882L144.758 262.969L151.221 264.264Z" fill="#E58A7B"/>
<path d="M161.191 182.565C161.568 183.978 162.094 185.346 162.759 186.644C162.565 186.869 162.315 187.036 162.035 187.127C161.755 187.219 161.457 187.231 161.171 187.164L161.191 182.565Z" fill="#DF5753"/>
<path d="M160.981 182.626C161.395 182.626 161.73 182.101 161.73 181.453C161.73 180.806 161.395 180.281 160.981 180.281C160.567 180.281 160.232 180.806 160.232 181.453C160.232 182.101 160.567 182.626 160.981 182.626Z" fill="#263238"/>
<path d="M160.761 180.322L162.279 179.883C162.279 179.883 161.54 181.086 160.761 180.322Z" fill="#263238"/>
<path d="M141.681 190.05C142.59 194.791 143.499 203.489 140.243 206.661C140.243 206.661 141.521 211.474 150.162 211.474C159.662 211.474 154.697 206.661 154.697 206.661C149.513 205.396 149.643 201.47 150.552 197.779L141.681 190.05Z" fill="#E58A7B"/>
<path d="M139.154 179.241C139.633 187.164 139.673 190.529 143.589 194.598C149.493 200.716 158.923 198.391 160.771 190.519C162.439 183.381 161.38 171.634 153.778 168.483C152.11 167.781 150.293 167.526 148.501 167.74C146.709 167.955 144.999 168.633 143.535 169.71C142.071 170.787 140.9 172.228 140.134 173.895C139.367 175.563 139.03 177.403 139.154 179.241Z" fill="#E58A7B"/>
<path d="M139.923 170.329C136.027 171.776 130.833 170.696 132.871 182.963C135.028 195.954 131.712 200.226 131.712 200.226C131.712 200.226 146.486 203.438 161.57 200.033C161.57 200.033 156.965 191.814 158.254 185.757C159.902 178.109 158.603 175.284 158.603 175.284C158.603 175.284 145.397 168.289 139.923 170.329Z" fill="#263238"/>
<path d="M156.406 183.371C156.41 184.877 156.832 186.352 157.624 187.623C158.683 189.275 159.932 188.642 160.242 186.889C160.521 185.349 160.312 182.626 158.963 181.566C157.614 180.505 156.426 181.545 156.406 183.371Z" fill="#E58A7B"/>
<path d="M136.537 171.664C135.418 168.452 140.752 163.507 152.04 165.546C163.328 167.586 163.818 177.181 163.818 177.181L161.54 174.407L161.64 177.324L150.042 179.598L136.537 171.664Z" fill="#263238"/>
<path d="M137.496 207.201C137.429 206.736 137.543 206.262 137.814 205.881C138.084 205.5 138.49 205.242 138.944 205.162C142.46 204.57 150.452 203.367 154.468 203.938C157.464 204.366 158.244 206.141 158.374 207.599C158.394 207.854 158.36 208.111 158.275 208.352C158.19 208.593 158.056 208.813 157.881 208.996C157.706 209.18 157.494 209.323 157.26 209.416C157.027 209.509 156.776 209.55 156.525 209.536L139.164 208.741C138.755 208.72 138.365 208.555 138.061 208.274C137.757 207.994 137.557 207.615 137.496 207.201Z" fill="#4CAF4F"/>
<path opacity="0.6" d="M137.496 207.201C137.429 206.736 137.543 206.262 137.814 205.881C138.084 205.5 138.49 205.242 138.944 205.162C142.46 204.57 150.452 203.367 154.468 203.938C157.464 204.366 158.244 206.141 158.374 207.599C158.394 207.854 158.36 208.111 158.275 208.352C158.19 208.593 158.056 208.813 157.881 208.996C157.706 209.18 157.494 209.323 157.26 209.416C157.027 209.509 156.776 209.55 156.525 209.536L139.164 208.741C138.755 208.72 138.365 208.555 138.061 208.274C137.757 207.994 137.557 207.615 137.496 207.201Z" fill="black"/>
<path d="M147.535 385.344L153.978 389.912L164.757 374.994L158.314 370.436L147.535 385.344Z" fill="#E58A7B"/>
<path d="M132.511 385.048L139.314 389.005L148.854 373.23L142.051 369.273L132.511 385.048Z" fill="#E58A7B"/>
<path d="M164.747 374.994L159.193 382.682L152.75 378.124L158.304 370.436L164.747 374.994Z" fill="#CF6F64"/>
<path d="M142.041 369.273L148.854 373.24L143.939 381.367L137.126 377.4L142.041 369.273Z" fill="#CF6F64"/>
<path d="M152.969 257.004C152.969 257.004 178.123 289.359 173.398 320.307C169.592 345.3 147.515 379.144 147.515 379.144L137.136 373.882C144.452 358.918 150.695 343.433 155.816 327.547C157.396 322.615 157.857 317.381 157.164 312.241C156.472 307.1 154.645 302.187 151.821 297.873C139.074 278.876 118.656 290.185 132.391 257.004H152.969Z" fill="#4CAF4F"/>
<path opacity="0.6" d="M152.969 257.004C152.969 257.004 178.123 289.359 173.398 320.307C169.592 345.3 147.515 379.144 147.515 379.144L137.136 373.882C144.452 358.918 150.695 343.433 155.816 327.547C157.396 322.615 157.857 317.381 157.164 312.241C156.472 307.1 154.645 302.187 151.821 297.873C139.074 278.876 118.656 290.185 132.391 257.004H152.969Z" fill="black"/>
<path opacity="0.4" d="M165.306 277.785L161.65 274.073C161.65 274.369 168.733 319.002 170.721 331.544C171.894 327.88 172.792 324.13 173.408 320.327C175.745 305.144 170.86 289.634 165.306 277.785Z" fill="black"/>
<path d="M164.197 257.004C164.197 257.004 194.485 297.669 195.344 322.051C196.054 342.445 162.379 381.958 162.379 381.958L152.59 375.493C152.59 375.493 172.299 347.431 177.264 324.508C175.346 301.789 134.789 257.004 134.789 257.004H164.197Z" fill="#4CAF4F"/>
<path opacity="0.6" d="M164.197 257.004C164.197 257.004 194.485 297.669 195.344 322.051C196.054 342.445 162.379 381.958 162.379 381.958L152.59 375.493C152.59 375.493 172.299 347.431 177.264 324.508C175.346 301.789 134.789 257.004 134.789 257.004H164.197Z" fill="black"/>
<path d="M126.727 208.476C123.491 209.261 120.384 221.273 120.384 221.273L133.04 229.9C133.04 229.9 137.256 220.396 135.778 216.236C134.249 211.902 130.793 207.487 126.727 208.476Z" fill="#4CAF4F"/>
<path opacity="0.2" d="M129.204 216.215L128.325 226.688L133.03 229.91C134.329 226.924 135.291 223.798 135.897 220.59L129.204 216.215Z" fill="black"/>
<path d="M167.943 208.71C167.943 208.71 171.679 210.046 164.197 256.993H132.371C132.911 243.737 132.92 235.58 126.727 208.476C131.183 207.538 135.7 206.932 140.243 206.661C145.055 206.308 149.885 206.308 154.697 206.661C160.911 207.242 167.943 208.71 167.943 208.71Z" fill="#4CAF4F"/>
<path d="M171.18 216.215C171.899 218.255 172.658 220.447 173.458 222.558C174.257 224.669 175.016 226.841 175.825 228.982L178.273 235.386L178.892 236.987L179.212 237.782L179.361 238.18C179.361 238.251 179.361 238.251 179.361 238.241C179.179 237.978 178.94 237.762 178.662 237.609C178.267 237.371 177.821 237.235 177.363 237.211C176.983 237.199 176.605 237.272 176.255 237.425C175.795 237.639 175.795 237.731 175.805 237.721C175.888 237.653 175.962 237.574 176.025 237.486C176.578 236.745 177.056 235.949 177.453 235.11C177.923 234.172 178.372 233.173 178.822 232.163C179.701 230.124 180.51 228.013 181.319 225.882C182.128 223.751 182.898 221.599 183.647 219.427L185.924 212.922L189.77 213.941C189.011 218.591 188.032 223.119 186.853 227.728C186.284 230.022 185.615 232.296 184.856 234.59C184.476 235.743 184.056 236.885 183.577 238.057C183.077 239.33 182.462 240.552 181.739 241.708C181.473 242.097 181.179 242.465 180.86 242.809C180.35 243.372 179.731 243.82 179.042 244.125C178.43 244.392 177.768 244.518 177.104 244.492C176.359 244.463 175.634 244.242 174.996 243.849C174.243 243.37 173.619 242.708 173.178 241.922C173.028 241.657 172.898 241.392 172.808 241.198L172.618 240.811L172.239 240.015L171.48 238.435C170.481 236.314 169.482 234.172 168.613 232.021C167.744 229.869 166.825 227.687 165.966 225.495C165.106 223.302 164.337 221.11 163.608 218.744L171.18 216.215Z" fill="#E58A7B"/>
<path d="M167.943 208.71C171.769 209.638 176.075 221.181 176.075 221.181L164.697 231.062C164.697 231.062 157.335 218.479 158.823 214.329C160.371 210.005 162.949 207.497 167.943 208.71Z" fill="#4CAF4F"/>
<path d="M187.732 209.271L191.728 205.865L194.505 210.281L192.457 213.962C192.457 213.962 189.201 217.021 186.324 215.461C185.867 214.413 185.758 213.242 186.012 212.125C186.266 211.008 186.87 210.006 187.732 209.271Z" fill="#E58A7B"/>
<path d="M198.941 205.875L198.641 206.987L192.318 208.067L191.698 205.865L198.941 205.875Z" fill="#E58A7B"/>
<path d="M163.159 382.478L151.751 374.953L153.798 371.323L166.615 379.368L163.159 382.478Z" fill="#4CAF4F"/>
<path d="M143.779 388.474C142.778 388.349 141.816 388.001 140.962 387.454C140.927 387.442 140.896 387.418 140.875 387.387C140.853 387.356 140.841 387.319 140.841 387.281C140.841 387.243 140.853 387.206 140.875 387.175C140.896 387.144 140.927 387.12 140.962 387.108C141.272 387.006 143.959 386.16 144.738 386.812C144.826 386.886 144.892 386.983 144.931 387.093C144.969 387.202 144.979 387.32 144.958 387.434C144.944 387.618 144.884 387.794 144.785 387.948C144.685 388.101 144.549 388.226 144.388 388.311C144.201 388.415 143.992 388.471 143.779 388.474ZM141.531 387.352C142.78 388.005 143.779 388.239 144.259 387.995C144.363 387.936 144.451 387.85 144.514 387.747C144.577 387.643 144.613 387.525 144.618 387.403C144.618 387.24 144.618 387.169 144.528 387.128C144.109 386.782 142.61 387.047 141.511 387.352H141.531Z" fill="#263238"/>
<path d="M141.032 387.525C140.979 387.525 140.929 387.503 140.892 387.464C140.877 387.436 140.869 387.404 140.869 387.372C140.869 387.34 140.877 387.309 140.892 387.281C140.892 387.189 141.541 384.977 142.56 384.477C142.69 384.416 142.832 384.385 142.975 384.385C143.118 384.385 143.259 384.416 143.389 384.477C143.53 384.522 143.651 384.614 143.734 384.738C143.818 384.862 143.858 385.01 143.849 385.16C143.779 386.078 141.951 387.342 141.112 387.556L141.032 387.525ZM142.97 384.742C142.873 384.745 142.777 384.77 142.69 384.813C142.071 385.119 141.561 386.312 141.312 387.036C142.191 386.659 143.399 385.66 143.439 385.099C143.439 385.007 143.439 384.895 143.21 384.793C143.135 384.752 143.054 384.724 142.97 384.711V384.742Z" fill="#263238"/>
<path d="M158.034 392.879C156.905 392.879 155.337 391.401 154.478 390.493C154.456 390.462 154.444 390.425 154.444 390.386C154.444 390.348 154.456 390.31 154.478 390.279C154.497 390.246 154.525 390.22 154.559 390.202C154.592 390.184 154.63 390.175 154.668 390.177C155.067 390.177 158.533 390.707 159.023 391.706C159.075 391.796 159.102 391.898 159.102 392.002C159.102 392.106 159.075 392.208 159.023 392.298C158.95 392.453 158.839 392.587 158.701 392.687C158.563 392.787 158.402 392.849 158.234 392.869L158.034 392.879ZM155.137 390.636C156.396 391.88 157.505 392.573 158.134 392.491C158.244 392.477 158.349 392.435 158.44 392.369C158.53 392.303 158.604 392.216 158.653 392.114C158.676 392.079 158.688 392.039 158.688 391.997C158.688 391.955 158.676 391.915 158.653 391.88C158.394 391.329 156.546 390.86 155.137 390.636Z" fill="#263238"/>
<path d="M155.247 390.585C155.023 390.591 154.798 390.574 154.578 390.534C154.547 390.529 154.518 390.516 154.493 390.496C154.469 390.477 154.45 390.451 154.438 390.421C154.423 390.391 154.415 390.358 154.415 390.325C154.415 390.291 154.423 390.258 154.438 390.228C154.498 390.156 155.846 388.495 157.125 388.383C157.487 388.354 157.845 388.471 158.124 388.709C158.513 389.055 158.493 389.361 158.394 389.555C158.144 390.248 156.416 390.585 155.247 390.585ZM154.987 390.207C156.106 390.269 157.894 389.891 158.124 389.392C158.124 389.392 158.204 389.229 157.944 389.004C157.841 388.913 157.72 388.844 157.589 388.802C157.459 388.759 157.321 388.745 157.185 388.76C156.324 389.005 155.557 389.514 154.987 390.218V390.207Z" fill="#263238"/>
<path d="M141.302 386.425L132.831 383.977C132.685 383.932 132.527 383.944 132.389 384.01C132.251 384.075 132.141 384.191 132.081 384.334L129.224 390.891C129.157 391.059 129.126 391.239 129.132 391.421C129.138 391.602 129.182 391.78 129.26 391.943C129.338 392.105 129.45 392.249 129.586 392.365C129.723 392.481 129.882 392.566 130.054 392.614C133.05 393.41 134.489 393.634 138.215 394.725C140.512 395.378 143.789 396.591 146.956 397.509C150.122 398.427 151.181 395.276 149.952 394.603C144.398 391.605 143.959 389.504 142.44 387.261C142.168 386.855 141.765 386.559 141.302 386.425Z" fill="#4CAF4F"/>
<path d="M154.707 389.3L147.475 384.202C147.352 384.111 147.201 384.068 147.05 384.084C146.899 384.099 146.759 384.17 146.656 384.283L141.861 389.545C141.744 389.681 141.657 389.841 141.605 390.014C141.554 390.187 141.539 390.369 141.561 390.549C141.584 390.728 141.644 390.9 141.737 391.054C141.83 391.208 141.954 391.34 142.101 391.442C144.648 393.185 145.967 393.889 149.153 396.142C151.151 397.529 155.017 400.609 157.714 402.526C160.411 404.443 162.419 401.812 161.46 400.772C157.165 396.091 156.226 393.155 155.517 390.493C155.393 390.011 155.107 389.588 154.707 389.3Z" fill="#4CAF4F"/>
<path d="M148.844 379.817L135.807 373.199L137.156 369.589L151.081 376.564L148.844 379.817Z" fill="#4CAF4F"/>
<path d="M131.892 255.086L130.793 258.023C130.683 258.247 130.943 258.481 131.312 258.481H164.357C164.647 258.481 164.887 258.339 164.907 258.155L165.186 255.239C165.186 255.046 164.957 254.872 164.647 254.872H132.411C132.314 254.863 132.216 254.878 132.126 254.915C132.035 254.952 131.955 255.011 131.892 255.086Z" fill="#4CAF4F"/>
<path opacity="0.4" d="M131.892 255.086L130.793 258.023C130.683 258.247 130.943 258.481 131.312 258.481H164.357C164.647 258.481 164.887 258.339 164.907 258.155L165.186 255.239C165.186 255.046 164.957 254.872 164.647 254.872H132.411C132.314 254.863 132.216 254.878 132.126 254.915C132.035 254.952 131.955 255.011 131.892 255.086Z" fill="white"/>
<path d="M137.096 258.767H136.227C136.057 258.767 135.927 258.675 135.937 258.563L136.347 254.781C136.347 254.679 136.507 254.587 136.677 254.587H137.546C137.715 254.587 137.845 254.679 137.835 254.781L137.426 258.563C137.416 258.675 137.266 258.767 137.096 258.767Z" fill="#4CAF4F"/>
<path d="M157.475 258.767H156.615C156.446 258.767 156.316 258.675 156.326 258.563L156.725 254.781C156.725 254.679 156.895 254.587 157.065 254.587H157.924C158.094 254.587 158.234 254.679 158.214 254.781L157.814 258.563C157.764 258.675 157.654 258.767 157.475 258.767Z" fill="#4CAF4F"/>
<g style="mix-blend-mode:multiply">
<path d="M136.337 431.454C151.117 431.454 163.099 430.569 163.099 429.476C163.099 428.384 151.117 427.498 136.337 427.498C121.557 427.498 109.575 428.384 109.575 429.476C109.575 430.569 121.557 431.454 136.337 431.454Z" fill="#F5F5F5"/>
</g>
<path d="M152.64 426.683C147.905 425.275 142.65 423.471 139.474 421.584C139.384 421.523 139.284 421.492 139.194 421.441V399.558H148.774C149.501 399.515 150.184 399.189 150.684 398.648C151.184 398.106 151.462 397.391 151.462 396.647C151.462 395.904 151.184 395.188 150.684 394.647C150.184 394.106 149.501 393.78 148.774 393.736H139.244V293.988H133.49V393.736H123.97C123.581 393.712 123.192 393.77 122.826 393.906C122.46 394.042 122.125 394.252 121.842 394.525C121.558 394.798 121.332 395.127 121.178 395.491C121.024 395.856 120.944 396.25 120.944 396.647C120.944 397.045 121.024 397.438 121.178 397.803C121.332 398.168 121.558 398.497 121.842 398.769C122.125 399.042 122.46 399.253 122.826 399.388C123.192 399.524 123.581 399.582 123.97 399.558H133.49V421.411C133.4 421.411 133.31 421.492 133.22 421.554C129.994 423.471 124.779 425.275 120.044 426.652C119.724 426.751 119.45 426.963 119.27 427.251C119.09 427.538 119.017 427.882 119.064 428.22C119.111 428.557 119.275 428.867 119.527 429.092C119.778 429.317 120.1 429.442 120.434 429.446H152.25C152.569 429.424 152.872 429.291 153.106 429.068C153.341 428.846 153.494 428.549 153.539 428.225C153.585 427.902 153.52 427.572 153.357 427.292C153.193 427.011 152.94 426.796 152.64 426.683Z" fill="#E0E0E0"/>
<path d="M154.108 283.832H118.586C115.728 283.832 113.411 286.197 113.411 289.114V299.892C113.411 302.81 115.728 305.174 118.586 305.174H154.108C156.966 305.174 159.283 302.81 159.283 299.892V289.114C159.283 286.197 156.966 283.832 154.108 283.832Z" fill="#4CAF4F"/>
<path d="M118.256 305.185V307.041C118.256 308.57 119.884 309.814 121.882 309.814H150.852C152.849 309.814 154.478 308.57 154.478 307.041V305.185H118.256Z" fill="#4CAF4F"/>
<path opacity="0.3" d="M118.256 305.185V307.041C118.256 308.57 119.884 309.814 121.882 309.814H150.852C152.849 309.814 154.478 308.57 154.478 307.041V305.185H118.256Z" fill="white"/>
</svg>
