<svg width="37" height="14" viewBox="0 0 37 14" fill="none" xmlns="http://www.w3.org/2000/svg">
<g clip-path="url(#clip0_211_2077)">
<path d="M8.81739 0.00402832C7.40385 0.00402832 6.04824 0.565548 5.04873 1.56506L1.78674 4.82705C0.787227 5.82656 0.225708 7.18218 0.225708 8.59571C0.225708 11.5392 2.6119 13.9254 5.55542 13.9254C6.96895 13.9254 8.32457 13.3639 9.32408 12.3644L11.5804 10.108C11.5804 10.108 11.5805 10.1081 11.5804 10.108L18.1546 3.53384C18.632 3.05648 19.2794 2.78831 19.9545 2.78831C21.0847 2.78831 22.0429 3.52494 22.3751 4.54429L24.4499 2.46949C23.5034 0.987036 21.8438 0.00402832 19.9545 0.00402832C18.541 0.00402832 17.1853 0.565548 16.1858 1.56506L7.35532 10.3956C6.87795 10.873 6.23051 11.1411 5.55542 11.1411C4.14961 11.1411 3.00999 10.0015 3.00999 8.59571C3.00999 7.92061 3.27816 7.27317 3.75552 6.79581L7.01749 3.53384C7.49485 3.05648 8.14229 2.78831 8.81739 2.78831C9.94766 2.78831 10.9058 3.52497 11.238 4.54435L13.3129 2.46954C12.3664 0.987064 10.7067 0.00402832 8.81739 0.00402832Z" fill="#394149"/>
<path d="M18.4924 10.3956C18.0151 10.873 17.3676 11.1411 16.6925 11.1411C15.5624 11.1411 14.6043 10.4047 14.272 9.38551L12.1973 11.4603C13.1438 12.9425 14.8034 13.9254 16.6925 13.9254C18.1061 13.9254 19.4617 13.3639 20.4612 12.3644L29.2917 3.53384C29.7691 3.05648 30.4165 2.78831 31.0916 2.78831C32.4974 2.78831 33.637 3.92793 33.637 5.33374C33.637 6.00883 33.3689 6.65627 32.8915 7.13364L29.6295 10.3956C29.1522 10.873 28.5047 11.1411 27.8296 11.1411C26.6995 11.1411 25.7413 10.4046 25.409 9.38528L23.3343 11.4601C24.2808 12.9425 25.9404 13.9254 27.8296 13.9254C29.2432 13.9254 30.5988 13.3639 31.5983 12.3644L34.8603 9.1024C35.8598 8.10289 36.4213 6.74727 36.4213 5.33374C36.4213 2.39022 34.0351 0.00402832 31.0916 0.00402832C29.6781 0.00402832 28.3225 0.565548 27.3229 1.56506L18.4924 10.3956Z" fill="#394149"/>
</g>
<defs>
<clipPath id="clip0_211_2077">
<rect width="36.1956" height="13.9214" fill="white" transform="translate(0.225708 0.00402832)"/>
</clipPath>
</defs>
</svg>
