<svg width="29" height="20" viewBox="0 0 29 20" fill="none" xmlns="http://www.w3.org/2000/svg">
<g clip-path="url(#clip0_211_2073)">
<path d="M27.0804 1.5032C27.0804 1.82756 27.3466 2.09051 27.675 2.09051H28.2696C28.598 2.09051 28.8641 1.82756 28.8641 1.5032C28.8641 1.17884 28.598 0.915894 28.2696 0.915894H27.675C27.3466 0.915894 27.0804 1.17884 27.0804 1.5032Z" fill="#212326"/>
<path d="M9.83827 19.7098H12.7265L11.8857 18.8792C11.6627 18.6589 11.3602 18.5352 11.0449 18.5352H9.83827C5.24113 18.5352 1.51444 14.8539 1.51444 10.3128C1.51444 5.77176 5.24113 2.09052 9.83827 2.09051H19.3512C23.9483 2.09051 27.675 5.77176 27.675 10.3128C27.675 14.8539 23.9483 18.5352 19.3512 18.5352H15.7926C15.3195 18.5352 14.8659 18.3495 14.5313 18.0191L13.5463 17.046C12.9888 16.4953 12.2326 16.1859 11.4441 16.1859H9.83827C6.55459 16.1859 3.89267 13.5565 3.89267 10.3128C3.89267 7.0692 6.55459 4.43975 9.83827 4.43975H19.3512C22.6349 4.43975 25.2968 7.0692 25.2968 10.3128C25.2968 13.5565 22.6349 16.1859 19.3512 16.1859H17.0663C16.5932 16.1859 16.1395 16.0003 15.805 15.6699L14.8199 14.6968C14.2624 14.1461 13.5062 13.8367 12.7178 13.8367H9.83827C7.86809 13.8367 6.27091 12.259 6.27091 10.3128C6.27091 8.36668 7.86809 6.78898 9.83827 6.78898H19.3512C21.3214 6.78898 22.9186 8.36668 22.9186 10.3128C22.9186 12.2353 21.3601 13.7982 19.4231 13.836L19.4228 13.8367H18.5527C18.0796 13.8367 17.6259 13.651 17.2914 13.3206L16.3063 12.3476C15.8488 11.8957 15.2577 11.6063 14.6246 11.517L14.5947 11.4874H9.83827C9.18154 11.4874 8.64915 10.9615 8.64915 10.3128C8.64915 9.66411 9.18154 9.13821 9.83827 9.13821H19.3512C20.0079 9.13821 20.5403 9.66411 20.5403 10.3128C20.5403 10.9615 20.0079 11.4874 19.3512 11.4874H16.973L17.8138 12.318C18.0368 12.5383 18.3393 12.6621 18.6546 12.6621H19.3512C20.6647 12.6621 21.7295 11.6103 21.7295 10.3128C21.7295 9.0154 20.6647 7.9636 19.3512 7.9636H9.83827C8.52481 7.9636 7.46003 9.0154 7.46003 10.3128C7.46003 11.6103 8.52481 12.6621 9.83827 12.6621H14.2042C14.6773 12.6621 15.1309 12.8477 15.4655 13.1781L16.4506 14.1512C17.0081 14.7019 17.7642 15.0113 18.5527 15.0113H19.6485V15.0023C22.1369 14.8507 24.1077 12.8091 24.1077 10.3128C24.1077 7.71796 21.9781 5.61436 19.3512 5.61436H9.83827C7.21136 5.61436 5.08179 7.71796 5.08179 10.3128C5.08179 12.9077 7.21136 15.0113 9.83827 15.0113H12.7178C13.1909 15.0113 13.6445 15.1969 13.9791 15.5273L14.9642 16.5004C15.5217 17.0511 16.2778 17.3605 17.0663 17.3605H19.3512C23.2916 17.3605 26.4859 14.2052 26.4859 10.3128C26.4859 6.42048 23.2916 3.26513 19.3512 3.26513H9.83827C5.89786 3.26513 2.70355 6.42048 2.70355 10.3128C2.70355 14.2052 5.89786 17.3605 9.83827 17.3605H11.4441C11.9172 17.3605 12.3709 17.5462 12.7054 17.8766L13.6905 18.8497C14.248 19.4004 15.0042 19.7098 15.7926 19.7098H19.3512C24.6051 19.7098 28.8642 15.5026 28.8642 10.3128C28.8642 5.12304 24.6051 0.915893 19.3512 0.915894L9.83827 0.915895C4.58441 0.915896 0.325317 5.12305 0.325317 10.3128C0.325318 15.5026 4.58441 19.7098 9.83827 19.7098Z" fill="#212326"/>
</g>
<defs>
<clipPath id="clip0_211_2073">
<rect width="28.5388" height="18.7939" fill="white" transform="translate(0.325317 0.915894)"/>
</clipPath>
</defs>
</svg>
