<svg width="33" height="21" viewBox="0 0 33 21" fill="none" xmlns="http://www.w3.org/2000/svg">
<g clip-path="url(#clip0_211_2057)">
<path d="M30.7849 2.70105C30.7849 2.72458 30.7849 2.754 30.7788 2.77166C30.7481 3.00114 30.7481 3.23062 30.7665 3.46599C30.7788 3.52483 30.791 3.58368 30.8401 3.63075C30.9198 3.71901 31.0424 3.70136 31.0915 3.59544C31.116 3.54249 31.116 3.48953 31.1037 3.43657C31.0424 3.21297 31.0301 2.9776 31.024 2.74812C31.024 2.73635 31.024 2.7187 31.024 2.70105C31.0914 2.69516 31.1528 2.68928 31.2079 2.68928C31.2509 2.68339 31.2876 2.67751 31.3183 2.65985C31.4102 2.61278 31.4102 2.51275 31.3121 2.46568C31.2754 2.44802 31.2263 2.44214 31.1834 2.44214C31.0301 2.44802 30.8769 2.44802 30.7236 2.44802C30.6684 2.44802 30.6132 2.45391 30.558 2.45979C30.5274 2.46568 30.4906 2.46568 30.4661 2.48333C30.4232 2.50098 30.3987 2.5304 30.3987 2.57159C30.4048 2.61278 30.4232 2.63632 30.4661 2.65397C30.4906 2.67163 30.5213 2.67751 30.5519 2.67751C30.6255 2.68339 30.7052 2.69516 30.7849 2.70105ZM32.4709 2.97172C32.4709 2.9776 32.477 2.98349 32.477 2.98349C32.5015 3.14236 32.5261 3.29535 32.5444 3.44834C32.5506 3.50129 32.5567 3.54837 32.5935 3.58956C32.6732 3.68959 32.7958 3.67782 32.851 3.57191C32.8755 3.51895 32.8816 3.46599 32.8694 3.40715C32.8326 3.23062 32.8142 3.0541 32.7774 2.88346C32.7529 2.77754 32.7223 2.67751 32.6916 2.58336C32.6732 2.52452 32.6303 2.48333 32.5567 2.47745C32.4832 2.46568 32.428 2.50098 32.3973 2.55394C32.3605 2.60101 32.3299 2.64809 32.3053 2.70105C32.2624 2.79519 32.2256 2.88934 32.1766 2.9776C32.1704 3.00114 32.1643 3.01879 32.1521 3.03644C32.146 3.02467 32.1398 3.01879 32.1398 3.01879C32.0601 2.87169 31.9865 2.72458 31.9069 2.58336C31.8946 2.57159 31.8884 2.55982 31.8823 2.54806C31.8455 2.4951 31.8026 2.46568 31.7352 2.46568C31.6739 2.47156 31.6248 2.50687 31.5942 2.55982C31.5819 2.58336 31.5819 2.60101 31.5758 2.62455C31.5512 2.81285 31.5206 3.00114 31.4961 3.18943C31.4838 3.29535 31.4777 3.40126 31.4777 3.50718C31.4716 3.53072 31.4777 3.56014 31.4899 3.58368C31.5022 3.63075 31.539 3.66017 31.588 3.66605C31.6493 3.67194 31.6922 3.65429 31.7107 3.60721C31.729 3.57191 31.7352 3.54249 31.7413 3.51307C31.7659 3.40715 31.7842 3.30712 31.8026 3.20709C31.8149 3.14825 31.821 3.10117 31.8394 3.03644C31.8517 3.05998 31.8639 3.07764 31.8762 3.09528C31.9313 3.1659 31.9865 3.23651 32.054 3.29535C32.1214 3.34242 32.1766 3.33654 32.2318 3.28358C32.2441 3.27181 32.2502 3.26593 32.2624 3.25416C32.3176 3.17178 32.3851 3.0894 32.4402 3.00702C32.4525 2.99525 32.4586 2.98349 32.4709 2.97172Z" fill="#3A3B7B"/>
<path d="M18.3447 2.81659C18.3021 2.92842 18.294 3.00898 18.3136 3.07594C18.3354 3.167 18.3918 3.19681 18.4683 3.17365C19.1884 3.00275 20.7675 3.48785 21.3521 3.62306C21.49 3.65145 21.6022 3.48062 21.5081 3.32747C21.3708 3.17914 19.7924 2.54412 19.1902 2.5095C18.9541 2.4967 18.5321 2.4386 18.3447 2.81659Z" fill="#3A3B7B"/>
<path d="M24.516 0.760957C24.5928 0.803472 24.6357 0.844027 24.6568 0.88934C24.6884 0.948779 24.6717 0.989903 24.6187 1.01089C24.1427 1.23386 23.5093 2.1938 23.2536 2.52488C23.1917 2.60104 23.0487 2.55678 23.0271 2.43153C23.0315 2.28992 23.593 1.24817 23.9064 0.964432C24.0295 0.853653 24.233 0.636289 24.516 0.760957Z" fill="#3A3B7B"/>
<path d="M20.7252 0.288449C20.8174 0.221754 20.9132 0.198382 20.9622 0.241725C21.6804 0.831225 22.0612 1.76475 22.297 2.61937C22.3059 2.63928 22.3065 2.66785 22.2994 2.69766C22.2964 2.72314 22.277 2.75005 22.2462 2.77087C22.2133 2.79386 22.185 2.80086 22.1717 2.78105C21.8569 2.37014 20.0591 0.771364 20.7252 0.288449Z" fill="#3A3B7B"/>
<path d="M5.5167 10.5088C5.68883 10.3858 5.87596 10.2834 6.07398 10.204C6.28116 10.1471 6.50199 10.1565 6.7031 10.2309C6.90416 10.3052 7.0746 10.4403 7.18855 10.6158C7.29048 10.7909 7.33034 10.993 7.30221 11.1918C7.27407 11.3905 7.17943 11.575 7.03249 11.7176C6.9186 11.8333 6.78928 11.934 6.648 12.0172C6.01827 12.4076 5.38294 12.7767 4.74765 13.1671C4.61765 13.2649 4.47974 13.3525 4.33525 13.4292C4.11547 13.5344 3.86429 13.5626 3.62514 13.5089C3.386 13.4552 3.17394 13.3229 3.02563 13.1351C2.91476 13.002 2.82119 12.8566 2.74699 12.7018C2.14512 11.4877 1.52096 10.2788 0.941383 9.04328C0.673885 8.50844 0.456544 7.89331 0.244776 7.29962C0.153155 7.12712 0.135264 6.92714 0.194911 6.74216C0.254559 6.55718 0.38704 6.40184 0.564172 6.30917C0.741306 6.2165 0.949113 6.19384 1.1434 6.24595C1.3377 6.29807 1.50314 6.42088 1.60455 6.58824C1.91626 6.98582 2.19218 7.40812 2.42933 7.85056C3.0312 8.92028 3.60521 9.99 4.18478 11.0277C4.21853 11.085 4.25574 11.1403 4.29624 11.1935C4.73247 11.0174 5.14277 10.7873 5.5167 10.5088Z" fill="#3A3B7B"/>
<path d="M11.7396 10.1357C10.3631 11.6815 8.05594 11.291 6.8968 9.30133C6.072 7.88927 5.92712 5.55724 7.72159 4.08635C8.10478 3.77841 8.56298 3.56864 9.05348 3.4766C9.65488 3.39385 10.2682 3.49568 10.8056 3.76754C11.3431 4.0394 11.7773 4.46736 12.0461 4.99029C13.0269 6.70188 12.8876 8.88412 11.7396 10.1357ZM11.1823 6.53071C11.0361 6.11011 10.7427 5.75102 10.3519 5.51444C10.1308 5.36318 9.86215 5.28964 9.59118 5.3062C9.32016 5.32276 9.06339 5.42842 8.86401 5.60536C8.06711 6.28467 7.89989 7.89464 8.47947 8.85205C8.55336 9.00818 8.66183 9.14691 8.79741 9.25857C8.93299 9.37024 9.09236 9.45213 9.26435 9.49847C9.43634 9.54485 9.61679 9.55457 9.79312 9.527C9.96946 9.49938 10.1373 9.43516 10.2851 9.33877C10.7171 9.01731 11.034 8.57468 11.1918 8.07242C11.3496 7.57011 11.3405 7.03311 11.1656 6.53608L11.1823 6.53071Z" fill="#3A3B7B"/>
<path d="M17.3571 7.20457C17.2161 7.23366 17.0706 7.2354 16.9289 7.20967C16.7873 7.18393 16.6524 7.13131 16.5323 7.05483C16.4272 6.99712 16.3367 6.9178 16.2674 6.82251C16.198 6.72722 16.1516 6.6184 16.1314 6.5038C16.1111 6.38924 16.1176 6.2718 16.1502 6.1599C16.1829 6.04801 16.2411 5.94446 16.3205 5.8567C16.4589 5.68035 16.6553 5.55409 16.8778 5.49835C17.4589 5.3365 18.0571 5.23781 18.6611 5.20419C18.7939 5.18937 18.9283 5.20015 19.0566 5.23589C19.1849 5.27167 19.3045 5.33163 19.4083 5.41238C19.5121 5.49308 19.5981 5.59291 19.6612 5.70595C19.7243 5.81899 19.7632 5.94299 19.7757 6.07067C19.9498 6.69781 19.9689 7.35537 19.8314 7.99087C19.3299 10.0447 17.6023 10.7508 15.6629 10.0929C15.1185 9.91698 14.6412 9.58923 14.292 9.15152C13.8262 8.62439 13.496 7.99967 13.3279 7.32762C13.1917 6.72915 13.2066 6.10815 13.3714 5.51638C13.5362 4.92461 13.8461 4.37924 14.2753 3.92584C14.6825 3.43304 15.2111 3.04521 15.8134 2.79726C16.194 2.59593 16.6393 2.53868 17.0617 2.6368C17.1575 2.66225 17.2445 2.71185 17.3136 2.78044C17.3828 2.84903 17.4315 2.93412 17.4548 3.02689C17.4781 3.11965 17.4752 3.21672 17.4462 3.30801C17.4173 3.3993 17.3634 3.4815 17.2902 3.54608C17.151 3.66699 16.9998 3.77448 16.8388 3.867C16.3433 4.16982 15.9122 4.56003 15.5682 5.01696C15.3427 5.31264 15.1874 5.65218 15.1133 6.01163C15.0391 6.37108 15.0479 6.74176 15.1391 7.09763C15.2655 7.58283 15.5459 8.01835 15.9416 8.34385C17.1676 9.41361 18.7614 8.38128 18.4828 6.9211C18.076 7.0174 17.7193 7.11901 17.3571 7.20457Z" fill="#3A3B7B"/>
<path d="M24.847 10.2213C23.0359 11.2911 20.9739 10.2213 20.5225 7.9749C20.1937 6.3703 20.8179 4.12383 23.0025 3.26804C23.4672 3.08988 23.9714 3.02732 24.4681 3.08618C25.0649 3.19103 25.6123 3.47301 26.0332 3.89236C26.4542 4.31171 26.7274 4.84726 26.8143 5.42357C27.1821 7.33303 26.3461 9.3709 24.847 10.2213ZM25.4768 6.62166C25.4762 6.17734 25.3125 5.74737 25.0143 5.40751C24.8548 5.1973 24.6244 5.04669 24.3622 4.98131C24.1 4.91598 23.8223 4.93993 23.5764 5.04917C22.5956 5.45564 21.9046 6.93188 22.1554 8.0177C22.1745 8.18809 22.2322 8.35242 22.3244 8.49919C22.4166 8.64595 22.5411 8.77161 22.6892 8.8674C22.8373 8.96314 23.0054 9.02673 23.1817 9.05366C23.3581 9.08054 23.5385 9.07017 23.7102 9.02324C24.2286 8.84941 24.6775 8.52456 24.9942 8.094C25.3109 7.66344 25.4797 7.14869 25.4768 6.62166Z" fill="#3A3B7B"/>
<path d="M28.6458 10.6706C28.6185 10.8664 28.5112 11.0437 28.3477 11.1636C28.1841 11.2834 27.9776 11.336 27.7737 11.3098C27.5697 11.2835 27.385 11.1806 27.2601 11.0236C27.1351 10.8666 27.0804 10.6685 27.1077 10.4727C27.1351 10.2769 27.2423 10.0996 27.4058 9.97974C27.5694 9.85987 27.7759 9.80729 27.9799 9.83353C28.1838 9.85978 28.3686 9.96268 28.4935 10.1197C28.6184 10.2767 28.6732 10.4749 28.6458 10.6706ZM28.161 3.4552C28.267 3.29983 28.4224 3.18152 28.6042 3.1179C28.786 3.05428 28.9844 3.04877 29.1697 3.10219C29.3581 3.14743 29.5245 3.25341 29.6412 3.40238C29.7578 3.55137 29.8176 3.73429 29.8106 3.92054C29.786 4.21928 29.7394 4.51598 29.6712 4.80841C29.4873 5.79794 29.309 6.78742 29.114 7.76626C29.0248 8.15672 28.9078 8.53112 28.7796 8.92691C28.735 9.05064 28.6605 9.16244 28.5622 9.25319C28.5011 9.32145 28.4231 9.3738 28.3354 9.40541C28.2476 9.43706 28.153 9.44693 28.0602 9.43413C27.9674 9.42133 27.8795 9.38628 27.8045 9.33223C27.7296 9.27814 27.6701 9.2068 27.6316 9.12482C27.5653 8.97774 27.5293 8.81969 27.5257 8.65949C27.5257 7.99624 27.5257 7.32767 27.5703 6.65905C27.646 5.7049 27.795 4.75738 28.0161 3.82426C28.0421 3.69924 28.0911 3.57969 28.161 3.47125V3.4552Z" fill="#3A3B7B"/>
<path fill-rule="evenodd" clip-rule="evenodd" d="M3.16219 14.9687C3.09639 15.1097 3.07834 15.2668 3.1105 15.4181C3.13189 15.6175 3.17887 15.8136 3.25038 16.002C3.33966 16.2326 3.43955 16.4607 3.56273 16.7419C3.59106 16.8066 3.62066 16.8741 3.65164 16.9452C3.81775 17.326 4.02617 17.8128 4.30418 18.5172C4.38287 18.7174 4.45275 18.9191 4.52311 19.1223C4.55154 19.2043 4.58006 19.2867 4.60926 19.3692C4.71393 19.6627 4.89404 19.9263 5.13276 20.1352C5.23414 20.25 5.3686 20.3337 5.51937 20.3755C5.67308 20.4182 5.83656 20.4155 5.98864 20.3678C6.14072 20.32 6.27429 20.2295 6.37202 20.1079C6.46783 19.9886 6.5248 19.8449 6.53588 19.6948C6.59803 19.4024 6.57682 19.0992 6.47437 18.8173C6.31178 18.3492 6.12656 17.8804 5.91298 17.4219L5.912 17.4199C5.56063 16.7026 5.20348 15.9902 4.82942 15.2775L4.82662 15.2725C4.71712 15.0869 4.57481 14.9209 4.40609 14.782C4.29656 14.6581 4.14548 14.5745 3.97863 14.5457C3.80823 14.5163 3.63248 14.546 3.48277 14.6294C3.34114 14.707 3.22887 14.8258 3.16219 14.9687Z" fill="#3A3B7B"/>
<path fill-rule="evenodd" clip-rule="evenodd" d="M8.52871 13.2023C7.97778 13.0654 7.40242 13.0454 6.8427 13.1439C6.40918 13.1849 5.98281 13.2808 5.68673 13.471C5.53615 13.5677 5.4144 13.6919 5.34668 13.8499C5.27859 14.0086 5.26989 14.1902 5.3257 14.3925C5.42758 14.7631 5.55989 15.1235 5.69173 15.4826L5.71309 15.5408L5.71361 15.5421C6.11058 16.5855 6.51135 17.6254 6.91575 18.6617C6.96291 18.8251 7.0296 18.9826 7.11447 19.1312L7.11606 19.134C7.22818 19.3186 7.37199 19.4837 7.54141 19.6224C7.62614 19.6986 7.73092 19.7514 7.84454 19.775C7.95928 19.7987 8.07859 19.7918 8.1895 19.755C8.30045 19.7181 8.39869 19.6527 8.47356 19.5659C8.54722 19.4806 8.59545 19.3777 8.61316 19.2682C8.68626 18.9709 8.66284 18.6591 8.546 18.3749C8.50955 18.2792 8.48094 18.1815 8.4508 18.0785C8.44075 18.0442 8.43056 18.0093 8.41981 17.9738C9.34552 17.6265 10.3305 17.1595 10.6768 16.0731C10.8125 15.6977 10.8238 15.2912 10.7092 14.9093C10.5945 14.527 10.3592 14.1882 10.0357 13.9394C9.59537 13.5912 9.08104 13.3396 8.52871 13.2023ZM7.00161 14.5348C7.01983 14.5298 7.0382 14.5251 7.05662 14.5208C7.65928 14.4298 8.27587 14.551 8.79286 14.8619C9.0207 15.0139 9.11403 15.1829 9.13006 15.3455C9.14661 15.5129 9.08319 15.6943 8.95578 15.8687C8.71505 16.1981 8.27573 16.4617 7.87889 16.5109C7.58959 15.8714 7.29581 15.2061 7.00161 14.5348Z" fill="#3A3B7B"/>
<path d="M12.2016 12.0319C12.8577 11.741 13.6704 11.6908 14.3064 11.8953C14.4665 11.9401 14.6055 12.0369 14.6995 12.1693C14.7928 12.3008 14.8359 12.4593 14.8215 12.6178C14.8206 12.7206 14.7943 12.8218 14.7448 12.9131C14.6944 13.0061 14.6215 13.086 14.5321 13.1462C14.4427 13.2063 14.3396 13.245 14.2314 13.2588C14.1232 13.2727 14.0131 13.2613 13.9104 13.2256L13.9026 13.2229L13.8953 13.2192C13.8427 13.1928 13.7869 13.173 13.7292 13.16L13.7256 13.1592C13.2782 13.0452 12.8562 13.2342 12.7021 13.4663C12.6286 13.5771 12.6195 13.6888 12.6807 13.7905C12.7463 13.8993 12.9071 14.0215 13.2325 14.1086C13.322 14.1322 13.4137 14.1549 13.5068 14.178C13.7641 14.242 14.0316 14.3084 14.2901 14.4005L14.2911 14.4009C15.4841 14.8365 15.9283 15.7388 15.7763 16.5874C15.6258 17.4267 14.8956 18.1904 13.7974 18.3706C13.3978 18.4556 12.982 18.439 12.591 18.3226C12.1991 18.2057 11.8458 17.9925 11.5663 17.704L11.559 17.6965C11.4707 17.5878 11.4114 17.4602 11.3851 17.3247C11.3609 17.2024 11.3736 17.0761 11.4218 16.9605C11.4696 16.8456 11.5506 16.7462 11.655 16.6738C11.7654 16.5916 11.8984 16.5424 12.0376 16.5321C12.1764 16.5219 12.3152 16.5508 12.4371 16.6153C12.5588 16.6717 12.672 16.7437 12.7736 16.8293L12.7755 16.8309C12.9552 16.9887 13.1727 17.0298 13.3812 16.9917C13.5928 16.9531 13.7917 16.8329 13.9197 16.6735C14.0468 16.5151 14.0979 16.3269 14.0373 16.1442C13.9764 15.9602 13.7931 15.754 13.3905 15.5817C13.2852 15.5388 13.1761 15.5042 13.0626 15.4705C13.032 15.4614 13.0008 15.4524 12.9693 15.4432C12.8854 15.4187 12.799 15.3936 12.7143 15.3658C12.656 15.3467 12.5982 15.3286 12.5409 15.3107C12.3842 15.2618 12.2316 15.214 12.0846 15.15C11.7648 15.0455 11.4885 14.8449 11.2968 14.5777C11.1044 14.3095 11.0075 13.9888 11.0207 13.6634C11.0217 12.8705 11.5421 12.3243 12.2016 12.0319Z" fill="#3A3B7B"/>
<path d="M20.5194 11.9475C20.3922 11.8878 20.2515 11.8595 20.1101 11.8651C19.9687 11.8707 19.8309 11.9099 19.7092 11.9794C19.5883 12.0484 19.4871 12.1451 19.4145 12.2607C19.348 12.3581 19.302 12.467 19.2791 12.5814C19.2561 12.6957 19.2567 12.8131 19.2806 12.9271C19.3043 13.0737 19.3306 13.2162 19.3565 13.3567C19.3995 13.5892 19.4413 13.8165 19.4689 14.0483L19.4699 14.0542C19.5326 14.4177 19.5655 14.7853 19.5684 15.1537L19.5687 15.1589C19.5902 15.5568 19.4489 15.9469 19.1753 16.2464L19.171 16.2518C19.0819 16.3613 18.9629 16.4449 18.8271 16.4932C18.6914 16.5415 18.5444 16.5526 18.4024 16.5252C18.2605 16.4979 18.1293 16.4332 18.0235 16.3384C17.9177 16.2435 17.8414 16.122 17.8033 15.988C17.722 15.7055 17.6749 15.415 17.6629 15.1222L17.8018 12.9997C17.8039 12.972 17.8062 12.9436 17.8086 12.9149C17.8139 12.8504 17.8193 12.7848 17.8215 12.7235C17.8248 12.6334 17.822 12.5407 17.8001 12.453C17.7778 12.3634 17.7352 12.2781 17.6597 12.2055C17.5849 12.1336 17.4839 12.0805 17.3569 12.0444C17.1272 11.9806 16.933 11.9826 16.7711 12.0486C16.6092 12.1145 16.4982 12.2369 16.4197 12.3783C16.3418 12.5185 16.2917 12.6845 16.2539 12.8507C16.2258 12.9741 16.2032 13.1036 16.1818 13.2269C16.1743 13.2694 16.1671 13.3111 16.1598 13.3516L16.1596 13.3528C16.0448 14.0288 16.0106 14.7152 16.0577 15.3987C16.0665 15.7681 16.1468 16.1327 16.2944 16.4739C16.4611 16.9141 16.7628 17.2955 17.16 17.5678C17.5579 17.8406 18.0328 17.991 18.5217 17.9989C19.0107 18.0068 19.4906 17.872 19.898 17.6123C20.3047 17.353 20.6199 16.9813 20.8019 16.5464C21.0564 15.9924 21.176 15.39 21.1513 14.7849C21.1364 14.3432 21.1113 13.8981 21.0864 13.4553C21.0741 13.238 21.0619 13.0213 21.051 12.8058C21.0455 12.5898 20.9713 12.3805 20.8383 12.2062C20.756 12.0959 20.6464 12.007 20.5194 11.9475Z" fill="#3A3B7B"/>
<path d="M25.0221 15.2754C25.0092 15.2912 24.9956 15.3074 24.9814 15.3244C24.8779 14.7515 24.782 14.1787 24.6859 13.6051C24.6515 13.3993 24.6169 13.1926 24.582 12.9866L24.5781 12.9636L24.5654 12.9437C24.5414 12.9063 24.539 12.8697 24.539 12.7915V12.7825L24.5376 12.7735C24.5116 12.6121 24.4355 12.4618 24.3193 12.3424C24.2034 12.2234 24.0528 12.1405 23.8873 12.1046C23.722 12.0654 23.5482 12.0741 23.388 12.1294C23.2281 12.1846 23.0888 12.2838 22.9874 12.4145C22.9031 12.5148 22.834 12.6261 22.7822 12.7451C22.6646 13.0012 22.5461 13.2581 22.4272 13.5156L22.4251 13.52C22.1283 14.1629 21.8295 14.8101 21.5393 15.4624L21.5384 15.4645C21.3603 15.8874 21.2133 16.3331 21.0668 16.7774C21.0375 16.866 21.0083 16.9547 20.9788 17.0431C20.9259 17.1833 20.9027 17.3322 20.9107 17.4811C20.9011 17.6143 20.9343 17.7473 21.006 17.8619C21.0791 17.9789 21.1886 18.071 21.319 18.1251C21.4573 18.1833 21.6118 18.1957 21.7582 18.1602C21.9043 18.1249 22.0341 18.0439 22.127 17.9302C22.2457 17.79 22.3479 17.6371 22.4312 17.4752C22.6769 16.9927 22.9118 16.5042 23.1457 16.0179C23.2361 15.8298 23.324 15.6614 23.4241 15.4779C23.4309 15.5005 23.4379 15.5226 23.4452 15.5447C23.55 15.9877 23.727 16.4119 23.9695 16.802C24.0154 16.8846 24.0793 16.9568 24.1569 17.0137C24.2354 17.0712 24.326 17.1116 24.4224 17.1321C24.5189 17.1526 24.6188 17.1527 24.7152 17.1324C24.8116 17.1121 24.9025 17.0717 24.981 17.0144L25.1365 16.9027L26.3434 15.927L26.272 16.3635C26.1741 16.9636 26.0768 17.5586 25.9736 18.1538C25.906 18.4176 25.9061 18.6931 25.9738 18.9568C26.0032 19.1052 26.078 19.2418 26.1886 19.3493C26.3002 19.4576 26.4432 19.5312 26.5989 19.5605C26.7546 19.5899 26.9159 19.5736 27.0619 19.5138C27.2058 19.455 27.3281 19.3565 27.4136 19.2311C27.6126 18.9941 27.7365 18.7072 27.7705 18.4046C27.8217 17.9772 27.8796 17.544 27.9375 17.1109C28.0042 16.6117 28.0709 16.1126 28.1272 15.6232L28.1274 15.6217C28.1816 15.0859 28.2078 14.5479 28.206 14.0095C28.2179 13.8394 28.1738 13.6699 28.0797 13.5251C27.9854 13.3798 27.8456 13.2668 27.6805 13.2021C27.5087 13.1272 27.3163 13.1071 27.1318 13.145C26.9484 13.1826 26.7825 13.2754 26.658 13.4098C26.4354 13.6074 26.2265 13.8188 26.0328 14.0427L26.0315 14.0443C25.82 14.2972 25.61 14.5551 25.4013 14.8113C25.2744 14.967 25.1479 15.1224 25.0221 15.2754Z" fill="#3A3B7B"/>
</g>
<defs>
<clipPath id="clip0_211_2057">
<rect width="32.7153" height="20.186" fill="white" transform="translate(0.160278 0.219727)"/>
</clipPath>
</defs>
</svg>
